<svg xmlns="http://www.w3.org/2000/svg" viewBox="0 0 1000 308">
  <path fill="#097A44" d="M0,0H480L350,308H0Z"/>
  <path fill="#F7931E" d="M510,0h490V308H380Z"/>
  <path fill="#fff" d="M350,154,480,0H380L250,154,380,308h100Z"/>
  <path fill="#fff" d="M160,101l-18,41h-20l-9-33-9,33H84L66,101H84l9,35,10-35h18l9,35,10-35Zm65,0-28,41H178l-9-13-9,13H100l28-41h19l9,13,9-13Zm-65,0"/>
  <path fill="#fff" d="M653,101l-18,41H615l-9-33-9,33H577l-18-41h18l9,35,10-35h18l9,35,10-35Zm65,0-28,41H671l-9-13-9,13H593l28-41h19l9,13,9-13Zm-65,0"/>
</svg>
