<svg xmlns="http://www.w3.org/2000/svg" viewBox="0 0 1000 324.68">
  <path fill="#00579f" d="M651.17,0c-70.93,0-134.32,36.9-134.32,105.21,0,77.74,114.8,82.59,114.8,122.13,0,16.43-18.75,31.11-50.87,31.11-45.73,0-79.58-20.57-79.58-20.57l-14.5,67.55s39.4,17.39,91.68,17.39c77.74,0,138.46-38.57,138.46-107.84,0-82.59-115.51-87.44-115.51-123.8,0-12.99,15.66-27.67,47.78-27.67,36.46,0,66.08,15.14,66.08,15.14l14.03-65.41S696.9,0,651.17,0"/>
  <path fill="#00579f" d="M2.5,6.44,0,19.14C42.56,30.77,79.73,49.27,109.4,71.5L185.32,317.3h81.96L401.52,6.44h-82.2l-85.39,216.54L201.75,54.82c-4.13-16.43-17.13-27.67-35.52-31.11-30.4-5.8-64.41-10.85-81.96-17.27H2.5"/>
  <path fill="#faa61a" d="M434.66,6.44,364.68,317.3h77.74L512.4,6.44h-77.74"/>
  <path fill="#00579f" d="M825.79,6.44c-16.43,0-31.11,9.42-37.38,24.1l-131.7,286.76h81.96l18.28-51.58h113.13l10.85,51.58h72.3L892.87,6.44h-67.08m10.85,87.44l26.96,128.61h-73.25l46.29-128.61"/>
</svg>
